<svg viewBox="0 0 125.82 79.22" xmlns="http://www.w3.org/2000/svg"><g fill="#444242"><path d="m43.59 52.79 2.82 5.62h-5.64zm-8.9 10.91h3.45l1.47-2.88h7.94l1.5 2.88h3.47l-7.29-13.91h-3.23z"/><path d="m63.25 63.7h2.63v-9.86h-3v7a6.22 6.22 0 0 1 -3.1.82c-1.83 0-2.57-.78-2.57-2.44v-5.38h-3v5.81c-.03 3.51 2.28 4.35 4.79 4.35a7.32 7.32 0 0 0 4-1.29z"/><path d="m75 61.68c-2 0-3.13-1.08-3.13-2.92s1.13-2.88 3.13-2.88a6.67 6.67 0 0 1 3.39.81v4.19a6.67 6.67 0 0 1 -3.39.8m-.59 2.32a6.56 6.56 0 0 0 4.15-1.38l.21 1.07h2.63v-13.9h-3v4.71a7.4 7.4 0 0 0 -3.82-1c-3.73 0-5.77 2-5.77 5.22s2 5.25 5.61 5.25"/><path d="m85.17 52.4h3v-2.61h-3zm0 11.3h3v-9.86h-3z"/></g><g fill="#b0b0b5"><path d="m35.88 16.18a13.62 13.62 0 1 0 13.62 13.62 13.62 13.62 0 0 0 -13.62-13.62zm0 23.89a10.27 10.27 0 1 1 10.27-10.27 10.27 10.27 0 0 1 -10.27 10.27z"/><path d="m52.88 16.18a13.62 13.62 0 1 0 13.61 13.62 13.62 13.62 0 0 0 -13.61-13.62zm0 23.89a10.27 10.27 0 1 1 10.27-10.27 10.27 10.27 0 0 1 -10.28 10.27z"/><path d="m70 16.18a13.62 13.62 0 1 0 13.63 13.62 13.62 13.62 0 0 0 -13.63-13.62zm0 23.89a10.27 10.27 0 1 1 10.28-10.27 10.27 10.27 0 0 1 -10.28 10.27z"/><path d="m87 16.18a13.62 13.62 0 1 0 13.63 13.62 13.62 13.62 0 0 0 -13.63-13.62zm0 23.89a10.27 10.27 0 1 1 10.28-10.27 10.27 10.27 0 0 1 -10.28 10.27z"/></g></svg>