<svg viewBox="0 0 125.82 79.22" xmlns="http://www.w3.org/2000/svg"><path d="m84.7 37.49h4.11a2.34 2.34 0 0 0 -.56-1.6 2 2 0 0 0 -1.51-.55 1.88 1.88 0 0 0 -1.43.55 2.59 2.59 0 0 0 -.61 1.6zm-5.46 2.37h2.67a8.2 8.2 0 0 1 -.11-1.35 9.32 9.32 0 0 1 .12-1.44h-2.72a2 2 0 0 0 -.59-1.27 1.73 1.73 0 0 0 -1.23-.44 1.71 1.71 0 0 0 -1.55.81 4.54 4.54 0 0 0 -.52 2.44 4.09 4.09 0 0 0 .54 2.3 1.71 1.71 0 0 0 1.53.81 1.69 1.69 0 0 0 1.25-.46 2.46 2.46 0 0 0 .61-1.4zm2.72.32a4.42 4.42 0 0 1 -1.41 2.82 4.71 4.71 0 0 1 -3.29 1.15 4.49 4.49 0 0 1 -3.57-1.48 5.44 5.44 0 0 1 -1.24-3.11v4.24h-2.8v-6.3a2.57 2.57 0 0 0 -.38-1.59 1.47 1.47 0 0 0 -1.27-.48 2.1 2.1 0 0 0 -1.57.58 2.21 2.21 0 0 0 -.57 1.6v6.17h-2.76v-4.32a5.31 5.31 0 0 1 -1.37 3.19 5.84 5.84 0 0 1 -7.77 0 4.87 4.87 0 0 1 -1.14-2 5.06 5.06 0 0 1 -1.47 2.15 6.28 6.28 0 0 1 -4.25 1.41 5.88 5.88 0 0 1 -4.71-2 7.06 7.06 0 0 1 -1.54-3.6 5.62 5.62 0 0 1 -1.42 4 5.08 5.08 0 0 1 -3.87 1.48 5.11 5.11 0 0 1 -3.89-1.48 5 5 0 0 1 -1.28-2.61 3.75 3.75 0 0 1 -1.32 2.63 5.8 5.8 0 0 1 -3.82 1.12h-6.45v-14.05h6.67a5.18 5.18 0 0 1 3.31.92 3.19 3.19 0 0 1 1.14 2.65 3.51 3.51 0 0 1 -.42 1.79 2.81 2.81 0 0 1 -1.27 1.1 3.5 3.5 0 0 1 1.64 1.27 3.19 3.19 0 0 1 .39.88 5.58 5.58 0 0 1 1.41-3.81 5.11 5.11 0 0 1 3.89-1.5 5.08 5.08 0 0 1 3.87 1.48 5 5 0 0 1 1.29 2.6v-.35a8 8 0 0 1 1.71-5.5 6.26 6.26 0 0 1 4.92-1.91 6.05 6.05 0 0 1 4.11 1.31 5.33 5.33 0 0 1 1.67 3.8h-3a2.82 2.82 0 0 0 -2.81-2.36c-2.86 0-3.67 2.38-3.67 4.68s.76 4.75 3.59 4.75a2.58 2.58 0 0 0 2.76-2.22h2.56c0-.23 0-.47 0-.71a5.66 5.66 0 0 1 1.44-4.07 5.84 5.84 0 0 1 7.77 0 5.28 5.28 0 0 1 1.37 3.18v-4.29h2.73v1.23a3.93 3.93 0 0 1 1.39-1.13 4.11 4.11 0 0 1 1.74-.38 3.42 3.42 0 0 1 2.59.9 3.75 3.75 0 0 1 .86 2.69v.91a5.4 5.4 0 0 1 1.27-3.11 4.61 4.61 0 0 1 3.64-1.5 4.74 4.74 0 0 1 3.25 1.07 4 4 0 0 1 1.39 2.8 5.06 5.06 0 0 1 1.15-2.38 4.54 4.54 0 0 1 3.54-1.49 4.73 4.73 0 0 1 3.71 1.45 5.37 5.37 0 0 1 1.26 3.2v-4.26h2.66v1.41a4.09 4.09 0 0 1 1.35-1.34 3.55 3.55 0 0 1 1.76-.46 3.8 3.8 0 0 1 3.13 1.51 5.48 5.48 0 0 1 .35.49v-1.61h1.47v-2.84h3v2.84h1.72v2h-1.72v5.75c0 .28.07.46.2.54a1.52 1.52 0 0 0 .79.13h.73v2.09h-1-.72a3.43 3.43 0 0 1 -2.34-.6 3.24 3.24 0 0 1 -.63-2.35v-5.61h-1.31a6.83 6.83 0 0 1 .69 3.19 6.46 6.46 0 0 1 -1.2 4 3.74 3.74 0 0 1 -3.1 1.55 3.67 3.67 0 0 1 -1.77-.42 3.55 3.55 0 0 1 -1.31-1.22v5.45h-2.75v-8.57h-7a3 3 0 0 0 .6 1.84 2 2 0 0 0 1.56.62 2.29 2.29 0 0 0 1.18-.28 1.92 1.92 0 0 0 .73-.87h2.79a4.39 4.39 0 0 1 -1.7 2.56 5.16 5.16 0 0 1 -3.13.94 4.57 4.57 0 0 1 -3.6-1.51 5.35 5.35 0 0 1 -1.09-2.44zm-60.37-5h3.32a2.67 2.67 0 0 0 1.58-.37 1.32 1.32 0 0 0 .5-1.16 1.27 1.27 0 0 0 -.49-1.12 2.81 2.81 0 0 0 -1.6-.35h-3.31zm0 6.09h3.41a2.93 2.93 0 0 0 1.78-.44 1.68 1.68 0 0 0 .55-1.39 1.71 1.71 0 0 0 -.5-1.44 3 3 0 0 0 -1.83-.44h-3.41v3.68zm11.5-2.67a3.86 3.86 0 0 0 .65 2.4 2.37 2.37 0 0 0 3.62 0 3.93 3.93 0 0 0 .64-2.43 3.83 3.83 0 0 0 -.64-2.38 2.39 2.39 0 0 0 -3.62 0 3.83 3.83 0 0 0 -.65 2.38zm22.29 0a3.93 3.93 0 0 0 .62 2.4 2.38 2.38 0 0 0 3.63 0 3.86 3.86 0 0 0 .64-2.39 3.9 3.9 0 0 0 -.63-2.38 2.41 2.41 0 0 0 -3.64 0 3.9 3.9 0 0 0 -.64 2.38zm43.6.08a4.13 4.13 0 0 0 -.59-2.4 2 2 0 0 0 -1.73-.82 2 2 0 0 0 -1.7.82 4.13 4.13 0 0 0 -.58 2.4 3.65 3.65 0 0 0 .62 2.24 2.06 2.06 0 0 0 1.73.8 2 2 0 0 0 1.66-.82 3.75 3.75 0 0 0 .6-2.25zm8.8-8.95a1.21 1.21 0 0 0 -.86.36 1.21 1.21 0 0 0 0 1.72 1.21 1.21 0 0 0 .86.36 1.23 1.23 0 0 0 .86-.36 1.23 1.23 0 0 0 0-1.72 1.23 1.23 0 0 0 -.86-.36zm.72.49a1 1 0 0 0 -1.45 0 1 1 0 0 0 -.3.73 1 1 0 0 0 .3.73 1 1 0 0 0 1.45 0 1 1 0 0 0 .31-.73 1 1 0 0 0 -.31-.73zm-.18 1.39h-.17l-.25-.61h-.38v.59h-.16v-1.36h.53a.41.41 0 0 1 .32.12.39.39 0 0 1 .1.26.36.36 0 0 1 -.06.2.37.37 0 0 1 -.19.15l.26.62zm-.8-.72v-.48h.37a.28.28 0 0 1 .18.06.19.19 0 0 1 .07.17.21.21 0 0 1 -.07.17.25.25 0 0 1 -.2.08z" fill="#444242"/></svg>