<svg viewBox="0 0 125.36 67.11" xmlns="http://www.w3.org/2000/svg"><g fill="#444242"><path d="m47.31 42a7.49 7.49 0 1 1 -.23-9.58l2.81-3.58a12 12 0 1 0 0 17z"/><path d="m52.32 25.88h5.06v23.22h-5.06z"/><path d="m79.9 26h5.06v23.22h-5.06z"/><path d="m71.25 49.33c-4.35 0-5.39-3.71-5.5-5.8v-13.27h-4.48v-4.26h4.45v-4.51l4.51-2.74-.12 3.46v3.79h4.56v4.26h-4.56v11.74a2.73 2.73 0 0 0 0 .5 2.94 2.94 0 0 0 0 .51v.26a3 3 0 0 0 1.79 2.33 3.16 3.16 0 0 0 1.19.24 3 3 0 0 0 2.36-1.11 3.17 3.17 0 0 0 .32-.49s.1 5.09-4.52 5.09z"/><path d="m70.11 42v1a2.94 2.94 0 0 1 0-.51 2.73 2.73 0 0 1 0-.49z"/></g><path d="m69.46 11.5a24.68 24.68 0 0 0 -20.57 11h7.11a19.2 19.2 0 0 1 26.84 0h7.16a24.72 24.72 0 0 0 -20.54-11z" fill="#b0b0b5"/><g fill="#444242"><path d="m91.71 22.1v-2.57h1.23a1.79 1.79 0 0 1 .53.06.56.56 0 0 1 .29.24.68.68 0 0 1 .11.41.81.81 0 0 1 -.08.37.72.72 0 0 1 -.24.25.71.71 0 0 1 -.26.1l.2.1a1 1 0 0 1 .11.13 1.11 1.11 0 0 1 .11.17l.36.74h-.84l-.4-.79a.55.55 0 0 0 -.13-.19.29.29 0 0 0 -.18-.07h-.07v1.05zm.74-1.53h.32.19a.14.14 0 0 0 .12-.08.25.25 0 0 0 0-.15.26.26 0 0 0 -.08-.19.45.45 0 0 0 -.27-.06h-.33z"/><path d="m92.69 18.25a2.6 2.6 0 1 0 2.6 2.6 2.59 2.59 0 0 0 -2.6-2.6zm0 4.72a2.12 2.12 0 1 1 2.12-2.12 2.12 2.12 0 0 1 -2.12 2.15z"/></g></svg>